<svg width="10" height="10" viewBox="0 0 10 10" fill="none" xmlns="http://www.w3.org/2000/svg">
<path d="M0.939423 7.94844C1.16048 7.42481 1.48128 6.94918 1.88395 6.54805C2.2854 6.14575 2.76095 5.82501 3.28434 5.60352C3.28903 5.60117 3.29372 5.6 3.29841 5.59766C2.56833 5.07031 2.09372 4.21133 2.09372 3.24219C2.09372 1.63672 3.3945 0.335938 4.99997 0.335938C6.60544 0.335938 7.90622 1.63672 7.90622 3.24219C7.90622 4.21133 7.43161 5.07031 6.70153 5.59883C6.70622 5.60117 6.71091 5.60234 6.7156 5.60469C7.2406 5.82617 7.71169 6.14375 8.11599 6.54922C8.51828 6.95066 8.83903 7.42622 9.06052 7.94961C9.27811 8.46202 9.39546 9.01138 9.40622 9.56797C9.40653 9.58048 9.40434 9.59292 9.39977 9.60457C9.3952 9.61621 9.38834 9.62683 9.3796 9.63578C9.37087 9.64474 9.36043 9.65185 9.3489 9.65671C9.33737 9.66157 9.32498 9.66407 9.31247 9.66406H8.60935C8.55778 9.66406 8.51677 9.62305 8.5156 9.57266C8.49216 8.66797 8.12888 7.8207 7.48669 7.17852C6.82224 6.51406 5.93981 6.14844 4.99997 6.14844C4.06013 6.14844 3.1777 6.51406 2.51325 7.17852C1.87106 7.8207 1.50778 8.66797 1.48434 9.57266C1.48317 9.62422 1.44216 9.66406 1.39059 9.66406H0.687469C0.674958 9.66407 0.662573 9.66157 0.651043 9.65671C0.639513 9.65185 0.629072 9.64474 0.620336 9.63578C0.611599 9.62683 0.604743 9.61621 0.600172 9.60457C0.5956 9.59292 0.593407 9.58048 0.593719 9.56797C0.605438 9.00781 0.721454 8.46289 0.939423 7.94844ZM4.99997 5.25781C5.53786 5.25781 6.04411 5.04805 6.42497 4.66719C6.80583 4.28633 7.0156 3.78008 7.0156 3.24219C7.0156 2.7043 6.80583 2.19805 6.42497 1.81719C6.04411 1.43633 5.53786 1.22656 4.99997 1.22656C4.46208 1.22656 3.95583 1.43633 3.57497 1.81719C3.19411 2.19805 2.98434 2.7043 2.98434 3.24219C2.98434 3.78008 3.19411 4.28633 3.57497 4.66719C3.95583 5.04805 4.46208 5.25781 4.99997 5.25781Z" fill="black" fill-opacity="0.65"/>
</svg>
