<svg width="94" height="40" viewBox="0 0 94 40" fill="none" xmlns="http://www.w3.org/2000/svg">
<path d="M0 29.3243V0.135132H5.51351V24.1757H18.0811V29.3243H0Z" fill="white"/>
<path d="M31.379 29.9324C29.1763 29.9324 27.2439 29.4392 25.5817 28.4527C23.9195 27.4662 22.6223 26.1081 21.6898 24.3784C20.7709 22.6351 20.3114 20.6351 20.3114 18.3784C20.3114 16.0946 20.7844 14.0878 21.7304 12.3581C22.6763 10.6149 23.9804 9.25675 25.6425 8.28378C27.3047 7.31081 29.2169 6.82432 31.379 6.82432C33.5817 6.82432 35.5141 7.31756 37.1763 8.30405C38.852 9.29054 40.156 10.6554 41.0885 12.3986C42.0209 14.1284 42.4871 16.1216 42.4871 18.3784C42.4871 20.6486 42.0141 22.6554 41.0682 24.3986C40.1358 26.1284 38.8317 27.4865 37.156 28.473C35.4939 29.4459 33.5682 29.9324 31.379 29.9324ZM31.379 24.7838C33.1493 24.7838 34.4668 24.1892 35.3317 23C36.2101 21.7973 36.6493 20.2568 36.6493 18.3784C36.6493 16.4324 36.2033 14.8784 35.3114 13.7162C34.4331 12.5541 33.1223 11.973 31.379 11.973C30.1763 11.973 29.1898 12.2432 28.4196 12.7838C27.6493 13.3243 27.075 14.0743 26.6966 15.0338C26.3317 15.9932 26.1493 17.1081 26.1493 18.3784C26.1493 20.3378 26.5885 21.8986 27.4668 23.0608C28.3587 24.2095 29.6628 24.7838 31.379 24.7838Z" fill="white"/>
<path d="M56.3095 39.6622C55.0663 39.6622 53.8839 39.4595 52.7622 39.0541C51.6406 38.6622 50.6339 38.1081 49.742 37.3919C48.8636 36.6892 48.1474 35.8649 47.5933 34.9189L52.7014 32.4459C53.0528 33.0946 53.5528 33.5878 54.2014 33.9257C54.8636 34.2635 55.5798 34.4324 56.3501 34.4324C57.1744 34.4324 57.9514 34.2905 58.6812 34.0068C59.4109 33.7365 59.992 33.3243 60.4244 32.7703C60.8703 32.2297 61.0798 31.5541 61.0528 30.7432V24.3784H61.742V7.43243H66.5663V30.8243C66.5663 31.3649 66.5393 31.8716 66.4852 32.3446C66.4447 32.8311 66.3636 33.3108 66.242 33.7838C65.8906 35.1216 65.2352 36.223 64.2758 37.0878C63.3298 37.9527 62.1677 38.5946 60.7893 39.0135C59.4109 39.4459 57.9177 39.6622 56.3095 39.6622ZM55.8231 29.9324C53.8095 29.9324 52.046 29.4257 50.5325 28.4122C49.019 27.3986 47.8366 26.0203 46.9852 24.277C46.1474 22.5338 45.7285 20.5676 45.7285 18.3784C45.7285 16.1486 46.1541 14.1689 47.0055 12.4392C47.8704 10.6959 49.0798 9.32432 50.6339 8.32432C52.1879 7.32432 54.0122 6.82432 56.1068 6.82432C58.1879 6.82432 59.9379 7.33108 61.3568 8.34459C62.7758 9.3581 63.8501 10.7365 64.5798 12.4797C65.3095 14.223 65.6744 16.1892 65.6744 18.3784C65.6744 20.5676 65.3028 22.5338 64.5595 24.277C63.8298 26.0203 62.7352 27.3986 61.2758 28.4122C59.8163 29.4257 57.9987 29.9324 55.8231 29.9324ZM56.715 25.027C57.9447 25.027 58.9244 24.75 59.6541 24.1959C60.3974 23.6419 60.9312 22.8649 61.2555 21.8649C61.5798 20.8649 61.742 19.7027 61.742 18.3784C61.742 17.0541 61.5798 15.8919 61.2555 14.8919C60.9312 13.8919 60.4109 13.1149 59.6947 12.5608C58.992 12.0068 58.0663 11.7297 56.9177 11.7297C55.6879 11.7297 54.6744 12.0338 53.8771 12.6419C53.0933 13.2365 52.5122 14.0405 52.1339 15.0541C51.7555 16.0541 51.5663 17.1622 51.5663 18.3784C51.5663 19.6081 51.7487 20.7297 52.1136 21.7432C52.4785 22.7432 53.0393 23.5405 53.796 24.1351C54.5528 24.7297 55.5258 25.027 56.715 25.027Z" fill="white"/>
<path d="M82.0943 29.9324C79.8916 29.9324 77.9591 29.4392 76.297 28.4527C74.6348 27.4662 73.3375 26.1081 72.4051 24.3784C71.4862 22.6351 71.0267 20.6351 71.0267 18.3784C71.0267 16.0946 71.4997 14.0878 72.4456 12.3581C73.3916 10.6149 74.6956 9.25675 76.3578 8.28378C78.02 7.31081 79.9321 6.82432 82.0943 6.82432C84.297 6.82432 86.2294 7.31756 87.8916 8.30405C89.5672 9.29054 90.8713 10.6554 91.8037 12.3986C92.7362 14.1284 93.2024 16.1216 93.2024 18.3784C93.2024 20.6486 92.7294 22.6554 91.7835 24.3986C90.851 26.1284 89.547 27.4865 87.8713 28.473C86.2091 29.4459 84.2835 29.9324 82.0943 29.9324ZM82.0943 24.7838C83.8645 24.7838 85.1821 24.1892 86.047 23C86.9254 21.7973 87.3645 20.2568 87.3645 18.3784C87.3645 16.4324 86.9186 14.8784 86.0267 13.7162C85.1483 12.5541 83.8375 11.973 82.0943 11.973C80.8916 11.973 79.9051 12.2432 79.1348 12.7838C78.3645 13.3243 77.7902 14.0743 77.4118 15.0338C77.047 15.9932 76.8645 17.1081 76.8645 18.3784C76.8645 20.3378 77.3037 21.8986 78.1821 23.0608C79.074 24.2095 80.3781 24.7838 82.0943 24.7838Z" fill="white"/>
</svg>
