<svg width="24" height="20" viewBox="0 0 24 20" fill="none" xmlns="http://www.w3.org/2000/svg">
<path d="M7.7406 19.3606C16.3255 19.3606 21.0211 12.248 21.0211 6.08002C21.0211 5.878 21.0211 5.67689 21.0075 5.47669C21.921 4.81595 22.7095 3.99783 23.3362 3.06064C22.4843 3.43811 21.5806 3.68565 20.6553 3.79501C21.6297 3.21168 22.359 2.29421 22.7074 1.21334C21.7911 1.75702 20.7888 2.14018 19.7435 2.34629C19.0398 1.59798 18.109 1.10247 17.0953 0.936437C16.0816 0.770403 15.0414 0.943101 14.1357 1.42781C13.23 1.91251 12.5093 2.68221 12.0851 3.61777C11.6609 4.55334 11.5569 5.60263 11.7892 6.60327C9.93348 6.51024 8.11807 6.028 6.46081 5.18785C4.80356 4.3477 3.34151 3.16842 2.16958 1.72658C1.57271 2.75412 1.38989 3.97051 1.65837 5.1281C1.92685 6.28569 2.62642 7.29744 3.61466 7.95735C2.87187 7.93533 2.14527 7.73496 1.49618 7.37313C1.49618 7.39224 1.49618 7.41226 1.49618 7.43228C1.49648 8.50992 1.86952 9.55428 2.55204 10.3882C3.23456 11.2222 4.18453 11.7944 5.24083 12.0078C4.55366 12.1952 3.83268 12.2226 3.13327 12.0878C3.43153 13.0153 4.01221 13.8263 4.79409 14.4075C5.57596 14.9887 6.51994 15.311 7.49399 15.3293C5.84119 16.6282 3.79945 17.3334 1.69729 17.3313C1.32592 17.3305 0.954917 17.3081 0.586182 17.2639C2.72071 18.6337 5.20435 19.3603 7.7406 19.3569" fill="white"/>
</svg>
