<svg width="12" height="12" viewBox="0 0 12 12" fill="none" xmlns="http://www.w3.org/2000/svg">
<path d="M1.93942 8.94844C2.16048 8.42481 2.48128 7.94918 2.88395 7.54805C3.2854 7.14575 3.76095 6.82501 4.28434 6.60352C4.28903 6.60117 4.29372 6.6 4.29841 6.59766C3.56833 6.07031 3.09372 5.21133 3.09372 4.24219C3.09372 2.63672 4.3945 1.33594 5.99997 1.33594C7.60544 1.33594 8.90622 2.63672 8.90622 4.24219C8.90622 5.21133 8.43161 6.07031 7.70153 6.59883C7.70622 6.60117 7.71091 6.60234 7.7156 6.60469C8.2406 6.82617 8.71169 7.14375 9.11599 7.54922C9.51828 7.95066 9.83903 8.42622 10.0605 8.94961C10.2781 9.46202 10.3955 10.0114 10.4062 10.568C10.4065 10.5805 10.4043 10.5929 10.3998 10.6046C10.3952 10.6162 10.3883 10.6268 10.3796 10.6358C10.3709 10.6447 10.3604 10.6519 10.3489 10.6567C10.3374 10.6616 10.325 10.6641 10.3125 10.6641H9.60935C9.55778 10.6641 9.51677 10.623 9.5156 10.5727C9.49216 9.66797 9.12888 8.8207 8.48669 8.17852C7.82224 7.51406 6.93981 7.14844 5.99997 7.14844C5.06013 7.14844 4.1777 7.51406 3.51325 8.17852C2.87106 8.8207 2.50778 9.66797 2.48434 10.5727C2.48317 10.6242 2.44216 10.6641 2.39059 10.6641H1.68747C1.67496 10.6641 1.66257 10.6616 1.65104 10.6567C1.63951 10.6519 1.62907 10.6447 1.62034 10.6358C1.6116 10.6268 1.60474 10.6162 1.60017 10.6046C1.5956 10.5929 1.59341 10.5805 1.59372 10.568C1.60544 10.0078 1.72145 9.46289 1.93942 8.94844ZM5.99997 6.25781C6.53786 6.25781 7.04411 6.04805 7.42497 5.66719C7.80583 5.28633 8.0156 4.78008 8.0156 4.24219C8.0156 3.7043 7.80583 3.19805 7.42497 2.81719C7.04411 2.43633 6.53786 2.22656 5.99997 2.22656C5.46208 2.22656 4.95583 2.43633 4.57497 2.81719C4.19411 3.19805 3.98434 3.7043 3.98434 4.24219C3.98434 4.78008 4.19411 5.28633 4.57497 5.66719C4.95583 6.04805 5.46208 6.25781 5.99997 6.25781Z" fill="black" fill-opacity="0.65"/>
</svg>
