<svg width="24" height="15" viewBox="0 0 24 15" fill="none" xmlns="http://www.w3.org/2000/svg">
<path fill-rule="evenodd" clip-rule="evenodd" d="M23.0641 1.78987C23.2223 1.26251 23.0641 0.875 22.3115 0.875H19.8226C19.1898 0.875 18.8981 1.20975 18.7398 1.57888C18.7398 1.57888 17.4741 4.66392 15.6812 6.66785C15.1011 7.24793 14.8374 7.4325 14.521 7.4325C14.3628 7.4325 14.1255 7.24793 14.1255 6.72061V1.78987C14.1255 1.15704 13.9501 0.875 13.4227 0.875H9.51164C9.11618 0.875 8.87834 1.16871 8.87834 1.44708C8.87834 2.04699 9.77479 2.18534 9.86719 3.8729V7.53801C9.86719 8.34158 9.72207 8.48727 9.40566 8.48727C8.56192 8.48727 6.50953 5.38845 5.29227 1.84259C5.05372 1.15339 4.81446 0.875 4.17837 0.875H1.68951C0.978411 0.875 0.836182 1.20975 0.836182 1.57888C0.836182 2.2381 1.67996 5.5077 4.76496 9.83198C6.8216 12.7851 9.71929 14.3859 12.3561 14.3859C13.9381 14.3859 14.1338 14.0304 14.1338 13.418V11.186C14.1338 10.4749 14.2837 10.333 14.7847 10.333C15.1538 10.333 15.7866 10.5175 17.2632 11.9414C18.9508 13.6289 19.229 14.3859 20.1782 14.3859H22.667C23.3781 14.3859 23.7337 14.0304 23.5286 13.3287C23.3041 12.6294 22.4984 11.6148 21.4293 10.4121C20.8492 9.72651 19.9791 8.98825 19.7154 8.61903C19.3463 8.14447 19.4517 7.93348 19.7154 7.51163C19.7154 7.51163 22.7477 3.24006 23.0641 1.78987Z" fill="white"/>
</svg>
